<svg xmlns="http://www.w3.org/2000/svg" viewBox="0 0 512 512">
  <defs>
    <linearGradient id="bg" x1="0" y1="0" x2="1" y2="1">
      <stop offset="0%" stop-color="#fde68a"/>
      <stop offset="50%" stop-color="#fbcfe8"/>
      <stop offset="100%" stop-color="#bfdbfe"/>
    </linearGradient>
  </defs>
  <rect width="512" height="512" rx="96" fill="url(#bg)"/>

  <g transform="translate(256 270)">
    <!-- Ears -->
    <polygon points="-110,-100 -135,-180 -55,-130" fill="#f59e0b" stroke="#92400e" stroke-width="6" stroke-linejoin="round"/>
    <polygon points="110,-100 135,-180 55,-130" fill="#f59e0b" stroke="#92400e" stroke-width="6" stroke-linejoin="round"/>
    <polygon points="-105,-110 -120,-160 -65,-130" fill="#fca5a5"/>
    <polygon points="105,-110 120,-160 65,-130" fill="#fca5a5"/>

    <!-- Head -->
    <ellipse cx="0" cy="-20" rx="140" ry="125" fill="#fbbf24" stroke="#92400e" stroke-width="6"/>

    <!-- Cheeks -->
    <circle cx="-85" cy="35" r="25" fill="#fb7185" opacity="0.5"/>
    <circle cx="85" cy="35" r="25" fill="#fb7185" opacity="0.5"/>

    <!-- Eyes -->
    <ellipse cx="-50" cy="-30" rx="18" ry="22" fill="#1f2937"/>
    <ellipse cx="50" cy="-30" rx="18" ry="22" fill="#1f2937"/>
    <circle cx="-44" cy="-38" r="7" fill="#ffffff"/>
    <circle cx="56" cy="-38" r="7" fill="#ffffff"/>

    <!-- Nose -->
    <path d="M -16 10 Q 0 25 16 10 Q 0 0 -16 10 Z" fill="#ec4899" stroke="#831843" stroke-width="3" stroke-linejoin="round"/>

    <!-- Mouth -->
    <path d="M 0 25 Q 0 40 -18 45 M 0 25 Q 0 40 18 45" stroke="#1f2937" stroke-width="4" fill="none" stroke-linecap="round"/>

    <!-- Whiskers -->
    <line x1="-140" y1="20" x2="-50" y2="15" stroke="#1f2937" stroke-width="3" stroke-linecap="round"/>
    <line x1="-140" y1="40" x2="-50" y2="30" stroke="#1f2937" stroke-width="3" stroke-linecap="round"/>
    <line x1="140" y1="20" x2="50" y2="15" stroke="#1f2937" stroke-width="3" stroke-linecap="round"/>
    <line x1="140" y1="40" x2="50" y2="30" stroke="#1f2937" stroke-width="3" stroke-linecap="round"/>
  </g>
</svg>
