<svg xmlns="http://www.w3.org/2000/svg" viewBox="0 0 512 512">
  <rect width="512" height="512" fill="#fbbf24"/>
  <g transform="translate(256 280)">
    <polygon points="-110,-100 -135,-180 -55,-130" fill="#f59e0b" stroke="#92400e" stroke-width="6" stroke-linejoin="round"/>
    <polygon points="110,-100 135,-180 55,-130" fill="#f59e0b" stroke="#92400e" stroke-width="6" stroke-linejoin="round"/>
    <polygon points="-105,-110 -120,-160 -65,-130" fill="#fca5a5"/>
    <polygon points="105,-110 120,-160 65,-130" fill="#fca5a5"/>
    <ellipse cx="0" cy="-20" rx="140" ry="125" fill="#fef3c7" stroke="#92400e" stroke-width="6"/>
    <circle cx="-85" cy="35" r="25" fill="#fb7185" opacity="0.6"/>
    <circle cx="85" cy="35" r="25" fill="#fb7185" opacity="0.6"/>
    <ellipse cx="-50" cy="-30" rx="18" ry="22" fill="#1f2937"/>
    <ellipse cx="50" cy="-30" rx="18" ry="22" fill="#1f2937"/>
    <circle cx="-44" cy="-38" r="7" fill="#ffffff"/>
    <circle cx="56" cy="-38" r="7" fill="#ffffff"/>
    <path d="M -16 10 Q 0 25 16 10 Q 0 0 -16 10 Z" fill="#ec4899" stroke="#831843" stroke-width="3" stroke-linejoin="round"/>
    <path d="M -25 30 Q -12 35 0 30 Q 12 35 25 30" stroke="#1f2937" stroke-width="4" fill="none" stroke-linecap="round" stroke-linejoin="round"/>
    <line x1="-140" y1="20" x2="-50" y2="15" stroke="#1f2937" stroke-width="3" stroke-linecap="round"/>
    <line x1="-140" y1="40" x2="-50" y2="30" stroke="#1f2937" stroke-width="3" stroke-linecap="round"/>
    <line x1="140" y1="20" x2="50" y2="15" stroke="#1f2937" stroke-width="3" stroke-linecap="round"/>
    <line x1="140" y1="40" x2="50" y2="30" stroke="#1f2937" stroke-width="3" stroke-linecap="round"/>
  </g>
</svg>
